<svg xmlns="http://www.w3.org/2000/svg" version="1.1" xmlns:xlink="http://www.w3.org/1999/xlink" width="512" height="512" x="0" y="0" viewBox="0 0 682.667 682.667" style="enable-background:new 0 0 512 512" xml:space="preserve" class=""><g><defs><clipPath id="a" clipPathUnits="userSpaceOnUse"><path d="M0 512h512V0H0Z" fill="#002d62" opacity="1" data-original="#000000"></path></clipPath></defs><g clip-path="url(#a)" transform="matrix(1.33333 0 0 -1.33333 0 682.667)"><path d="M0 0c-6.504 9.272-20.279 23.383-42.788 20.869-19.064-2.129-33.286 3.989-42.317 10.045" style="stroke-width:15;stroke-linecap:round;stroke-linejoin:round;stroke-miterlimit:10;stroke-dasharray:none;stroke-opacity:1" transform="translate(226.67 420.555)" fill="none" stroke="#002d62" stroke-width="15" stroke-linecap="round" stroke-linejoin="round" stroke-miterlimit="10" stroke-dasharray="none" stroke-opacity="" data-original="#000000" class="" opacity="1"></path><path d="M0 0s-53.08 3.816-72.873-30.013" style="stroke-width:15;stroke-linecap:round;stroke-linejoin:round;stroke-miterlimit:10;stroke-dasharray:none;stroke-opacity:1" transform="translate(224.712 410.741)" fill="none" stroke="#002d62" stroke-width="15" stroke-linecap="round" stroke-linejoin="round" stroke-miterlimit="10" stroke-dasharray="none" stroke-opacity="" data-original="#000000" class="" opacity="1"></path><path d="M0 0c-28.511-7.2-56.677-7.201-85.193 0-9.925 2.507-15.551 13.667-11.979 23.812l.119.339c2.995 8.506 11.488 13.279 19.812 11.189 23.345-5.861 45.937-5.863 69.289 0 8.324 2.09 16.817-2.684 19.811-11.189l.12-.34C15.551 13.666 9.925 2.507 0 0Z" style="stroke-width:15;stroke-linecap:round;stroke-linejoin:round;stroke-miterlimit:10;stroke-dasharray:none;stroke-opacity:1" transform="translate(322.92 394.484)" fill="none" stroke="#002d62" stroke-width="15" stroke-linecap="round" stroke-linejoin="round" stroke-miterlimit="10" stroke-dasharray="none" stroke-opacity="" data-original="#000000" class="" opacity="1"></path><path d="M0 0c13.454 19.536 35.978 56.158 25.832 69.296-4.809 6.225-8.909-2.23-18.854-2.23-11.685 0-11.685 7.645-23.369 7.645-11.683 0-11.683-7.645-23.367-7.645-11.682 0-11.682 7.645-23.365 7.645-11.683 0-11.683-7.645-23.365-7.645-9.956 0-14.04 8.565-18.88 2.336C-115.44 56.438-93.713 20.203-80.436.504" style="stroke-width:15;stroke-linecap:round;stroke-linejoin:round;stroke-miterlimit:10;stroke-dasharray:none;stroke-opacity:1" transform="translate(322.92 429.79)" fill="none" stroke="#002d62" stroke-width="15" stroke-linecap="round" stroke-linejoin="round" stroke-miterlimit="10" stroke-dasharray="none" stroke-opacity="" data-original="#000000" class="" opacity="1"></path><path d="M0 0c-9.32 8.303-19.469 16.516-30.488 24.597" style="stroke-width:15;stroke-linecap:round;stroke-linejoin:round;stroke-miterlimit:10;stroke-dasharray:none;stroke-opacity:1" transform="translate(364.295 378.643)" fill="none" stroke="#002d62" stroke-width="15" stroke-linecap="round" stroke-linejoin="round" stroke-miterlimit="10" stroke-dasharray="none" stroke-opacity="" data-original="#000000" class="" opacity="1"></path><path d="M0 0c-92.736-69.443-121.721-148.492-112.267-210.017" style="stroke-width:15;stroke-linecap:round;stroke-linejoin:round;stroke-miterlimit:10;stroke-dasharray:none;stroke-opacity:1" transform="translate(228.419 400.747)" fill="none" stroke="#002d62" stroke-width="15" stroke-linecap="round" stroke-linejoin="round" stroke-miterlimit="10" stroke-dasharray="none" stroke-opacity="" data-original="#000000" class="" opacity="1"></path><path d="M0 0c36.987 51.994 36.101 138.002-38.666 219.557" style="stroke-width:15;stroke-linecap:round;stroke-linejoin:round;stroke-miterlimit:10;stroke-dasharray:none;stroke-opacity:1" transform="translate(427.972 134.498)" fill="none" stroke="#002d62" stroke-width="15" stroke-linecap="round" stroke-linejoin="round" stroke-miterlimit="10" stroke-dasharray="none" stroke-opacity="" data-original="#000000" class="" opacity="1"></path><path d="m0 0-.004-.533.353.155C.234-.25.116-.126 0 0" style="fill-opacity:1;fill-rule:nonzero;stroke:none" transform="translate(312.003 132.78)" fill="#ffddce" data-original="#ffddce"></path><path d="M0 0h84.819" style="stroke-width:15;stroke-linecap:round;stroke-linejoin:round;stroke-miterlimit:10;stroke-dasharray:none;stroke-opacity:1" transform="translate(237.208 87.85)" fill="none" stroke="#002d62" stroke-width="15" stroke-linecap="round" stroke-linejoin="round" stroke-miterlimit="10" stroke-dasharray="none" stroke-opacity="" data-original="#000000" class="" opacity="1"></path><path d="m0 0 85.216-31.718a82.63 82.63 0 0 1 28.822-5.19h111.899a82.623 82.623 0 0 1 44.224 12.832l140.108 88.78c9.243 8.208 10.957 22.003 4.002 32.223-7.608 11.182-20.196 13.126-34.046 6.577l-136.41-60.063.162 22.132c-1.807 18.165-15.793 32.744-33.869 35.302l-83.069 9.563c-19.162 2.712-28.738 9.133-45.443 18.906A148.878 148.878 0 0 1 6.42 149.717H0" style="stroke-width:15;stroke-linecap:round;stroke-linejoin:round;stroke-miterlimit:10;stroke-dasharray:none;stroke-opacity:1" transform="translate(78.211 44.408)" fill="none" stroke="#002d62" stroke-width="15" stroke-linecap="round" stroke-linejoin="round" stroke-miterlimit="10" stroke-dasharray="none" stroke-opacity="" data-original="#000000" class="" opacity="1"></path><path d="M0 0v-98.906c0-7.878-6.386-14.265-14.264-14.265h-34.427c-7.878 0-14.265 6.387-14.265 14.265V75.758c0 7.878 6.387 14.263 14.265 14.263h34.427C-6.386 90.021 0 83.636 0 75.758V35.06" style="stroke-width:15;stroke-linecap:round;stroke-linejoin:round;stroke-miterlimit:10;stroke-dasharray:none;stroke-opacity:1" transform="translate(78.211 130.384)" fill="none" stroke="#002d62" stroke-width="15" stroke-linecap="round" stroke-linejoin="round" stroke-miterlimit="10" stroke-dasharray="none" stroke-opacity="" data-original="#000000" class="" opacity="1"></path><path d="M0 0s-14.964 13.802-38.03 6.854c-21.179-6.38-26.439-35.36-12.047-46.648 8.264-6.481 20.699-11.811 37.458-17.735 37.508-13.258 23.642-66.155-14.511-66.409-14.89-.098-21.85.846-34.93 9.403" style="stroke-width:15;stroke-linecap:round;stroke-linejoin:round;stroke-miterlimit:10;stroke-dasharray:none;stroke-opacity:1" transform="translate(309.428 322.546)" fill="none" stroke="#002d62" stroke-width="15" stroke-linecap="round" stroke-linejoin="round" stroke-miterlimit="10" stroke-dasharray="none" stroke-opacity="" data-original="#000000" class="" opacity="1"></path><path d="M0 0v-169.91" style="stroke-width:15;stroke-linecap:round;stroke-linejoin:round;stroke-miterlimit:10;stroke-dasharray:none;stroke-opacity:1" transform="translate(282.298 349.21)" fill="none" stroke="#002d62" stroke-width="15" stroke-linecap="round" stroke-linejoin="round" stroke-miterlimit="10" stroke-dasharray="none" stroke-opacity="" data-original="#000000" class="" opacity="1"></path></g></g></svg>