<svg xmlns="http://www.w3.org/2000/svg" version="1.1" xmlns:xlink="http://www.w3.org/1999/xlink" width="512" height="512" x="0" y="0" viewBox="0 0 512 512" style="enable-background:new 0 0 512 512" xml:space="preserve" class=""><g><path d="M249.76 310.45h-31.49c-36.43 0-66.06 29.64-66.06 66.06v42.97c0 12.72 10.34 23.06 23.06 23.06h117.5c12.72 0 23.06-10.34 23.06-23.06v-42.97c0-36.42-29.64-66.06-66.07-66.06zm50.05 109.04c0 3.88-3.16 7.04-7.04 7.04h-22.32V388.5c0-4.42-3.58-8.01-8.01-8.01s-8.01 3.58-8.01 8.01v38.03h-40.82V388.5c0-4.42-3.58-8.01-8.01-8.01s-8.01 3.58-8.01 8.01v38.03h-22.32c-3.88 0-7.04-3.16-7.04-7.04v-42.97c0-27.6 22.45-50.05 50.05-50.05h31.49c27.6 0 50.05 22.45 50.05 50.05v42.97zM183.9 255.28c0 27.64 22.48 50.13 50.1 50.13 27.64 0 50.13-22.49 50.13-50.13 0-27.63-22.49-50.1-50.13-50.1-27.62 0-50.1 22.47-50.1 50.1zm84.22 0c0 18.81-15.3 34.11-34.12 34.11-18.8 0-34.09-15.3-34.09-34.11 0-18.8 15.29-34.09 34.09-34.09 18.81 0 34.12 15.29 34.12 34.09zM84.19 327.75H57.4c-31.66 0-57.42 25.76-57.42 57.42v36.57c0 11.48 9.34 20.82 20.82 20.82h99.98c11.48 0 20.82-9.34 20.82-20.82v-36.57c.01-31.67-25.75-57.42-57.41-57.42zm41.4 93.98c0 2.65-2.16 4.8-4.8 4.8H103v-31.17c0-4.42-3.58-8.01-8.01-8.01s-8.01 3.58-8.01 8.01v31.17H54.64v-31.17c0-4.42-3.58-8.01-8.01-8.01s-8.01 3.58-8.01 8.01v31.17H20.81c-2.65 0-4.8-2.16-4.8-4.8v-36.57c0-22.83 18.57-41.4 41.4-41.4H84.2c22.83 0 41.4 18.57 41.4 41.4v36.57zm-54.78-95.88c24.17 0 43.84-19.68 43.84-43.87 0-24.17-19.67-43.84-43.84-43.84-24.19 0-43.87 19.67-43.87 43.84.01 24.19 19.69 43.87 43.87 43.87zm0-71.69c15.34 0 27.82 12.48 27.82 27.82 0 15.36-12.48 27.85-27.82 27.85-15.36 0-27.85-12.49-27.85-27.85 0-15.34 12.5-27.82 27.85-27.82zm366.49 39h-36.2c-41.18 0-74.68 33.51-74.68 74.71v49.38c0 13.95 11.35 25.3 25.3 25.3h134.99c13.95 0 25.3-11.35 25.3-25.3v-49.38c0-41.19-33.51-74.71-74.71-74.71zM496 417.25c0 5.12-4.16 9.28-9.28 9.28h-26.86v-44.89c0-4.42-3.58-8.01-8.01-8.01s-8.01 3.58-8.01 8.01v44.89h-49.27v-44.89c0-4.42-3.58-8.01-8.01-8.01s-8.01 3.58-8.01 8.01v44.89h-26.83c-5.12 0-9.28-4.16-9.28-9.28v-49.38c0-32.36 26.32-58.69 58.66-58.69h36.2c32.36 0 58.69 26.33 58.69 58.69v49.38zM362.82 228.58c0 31.1 25.3 56.4 56.4 56.4s56.4-25.3 56.4-56.4-25.3-56.4-56.4-56.4-56.4 25.3-56.4 56.4zm56.4-40.38c22.27 0 40.38 18.11 40.38 40.38s-18.11 40.38-40.38 40.38-40.38-18.11-40.38-40.38 18.11-40.38 40.38-40.38zm-392.05 2.05c-1.03-4.3 1.62-8.62 5.92-9.66l323.3-77.62-31.99-18.59c-3.82-2.22-5.12-7.12-2.9-10.95 2.22-3.82 7.12-5.12 10.95-2.9l49.27 28.63c3.82 2.22 5.12 7.12 2.9 10.95l-28.63 49.29a8.006 8.006 0 0 1-10.94 2.91c-3.83-2.22-5.12-7.12-2.9-10.95l19.24-33.12-324.57 77.93a8.007 8.007 0 0 1-9.65-5.92z" fill="#fde8e3" opacity="1" data-original="#000000" class=""></path></g></svg>